<svg xmlns="http://www.w3.org/2000/svg" role="img" class="" style="pointer-events: none; width: 24px; height: 24px; " viewBox="0 0 20 20" fill="#3b82f6" fill-rule="evenodd">
  <g buffered-rendering="static">

      <path d="M10.004 14.458a2.273 2.273 0 012.271 2.271 2.273 2.273 0 01-4.543 0 2.273 2.273 0 012.272-2.271zM5.023 1a2.273 2.273 0 012.271 2.271A2.272 2.272 0 115.023 1zm9.954 0a2.272 2.272 0 010 4.542 2.273 2.273 0 01-2.271-2.271A2.273 2.273 0 0114.977 1z" fill-opacity=".7"/>
      <path d="M6.138 5.249v2.61c0 .601.494 1.094 1.094 1.094h5.545a1.1 1.1 0 001.094-1.094V5.254a2.25 2.25 0 001.106.288 2.26 2.26 0 001.062-.263v2.58a3.28 3.28 0 01-3.262 3.263h-1.689v3.612a2.263 2.263 0 00-2.168-.001v-3.611H7.232a3.28 3.28 0 01-3.263-3.263V5.283a2.267 2.267 0 002.169-.034z" fill-opacity=".3" fill-rule="nonzero"/>
      <path d="M13.871 5.254A2.27 2.27 0 0114.977 1a2.272 2.272 0 011.062 4.279v2.58a3.28 3.28 0 01-3.262 3.263h-1.689v3.612A2.27 2.27 0 0110.004 19a2.273 2.273 0 01-2.272-2.271c0-.861.481-1.611 1.188-1.996v-3.611H7.232a3.28 3.28 0 01-3.263-3.263V5.283A2.273 2.273 0 015.023 1a2.27 2.27 0 011.115 4.249v2.61c0 .601.494 1.094 1.094 1.094h5.545a1.1 1.1 0 001.094-1.094V5.254zm.5 2.606V4.961l-.256-.143a1.772 1.772 0 01.862-3.318 1.772 1.772 0 01.828 3.337l-.266.141v2.881a2.778 2.778 0 01-2.762 2.763h-2.189v4.409l.261.142a1.772 1.772 0 11-1.69-.001l.261-.142v-4.408H7.232a2.777 2.777 0 01-2.763-2.763V4.981l-.267-.14A1.773 1.773 0 015.023 1.5a1.772 1.772 0 01.869 3.314l-.254.144v2.901c0 .875.72 1.594 1.594 1.594h5.545c.874 0 1.593-.719 1.594-1.593z"/>

  </g>
</svg>