<svg xmlns="http://www.w3.org/2000/svg" role="img" class="brightness-0 invert max-w-full" viewBox="0 0 250 88" style="pointer-events: none; width: 150px; height: 24px; ">
  <g buffered-rendering="static">
    <path d="M158.728 72.074c4.795 2.485 9.589 3.639 14.649 3.639 8.966 0 12.784-3.639 12.784-12.34v-.267c-2.664 1.331-5.327 1.865-8.878 1.865-11.985 0-19.622-7.902-19.622-20.419 0-15.538 11.276-24.326 31.251-24.326 5.86 0 11.276.621 17.846 1.952l-4.682 9.862c-3.64-.71-.291-.095-3.042-.361V33.1l.177 5.77.088 7.458c.089 1.863.089 3.728.178 5.592v3.729c0 11.72-.976 17.224-3.906 21.751-4.262 6.659-11.63 9.944-22.106 9.944-5.327 0-9.943-.799-14.738-2.664V72.074h.001Zm-93.831-50.96v31.694c0 10.92-.799 16.157-3.196 20.685-2.219 4.351-5.15 7.103-11.186 10.122l-12.696-6.037c6.037-2.841 8.967-5.326 10.831-9.145 1.954-3.906 2.576-8.434 2.576-20.33V21.114h13.671Zm163.085-1.154c13.672 0 22.018 8.612 22.018 22.55 0 14.294-8.7 23.261-22.55 23.261-13.673 0-22.107-8.612-22.107-22.462.001-14.383 8.702-23.349 22.639-23.349ZM73.156 24.221c6.037-2.84 11.808-4.083 18.111-4.083 7.014 0 11.63 1.863 13.672 5.504 1.154 2.042 1.509 4.705 1.509 10.387v27.788c-6.127.887-13.85 1.509-19.531 1.509-11.453 0-16.603-3.996-16.603-12.874 0-9.588 6.836-14.027 23.616-15.448v-3.018c0-2.486-1.243-3.373-4.705-3.373-5.06 0-10.743 1.42-16.07 4.173V24.221h.001ZM29.475 0h13.672v63.284c-7.013 1.332-12.163 1.865-17.756 1.865C8.7 65.148 0 57.603 0 43.131c0-13.938 9.234-22.993 23.527-22.993 2.219 0 3.906.177 5.948.709V0Zm83.632 23.244c8.078-2.13 14.737-3.106 21.484-3.106 7.014 0 12.075 1.597 15.094 4.705 2.841 2.929 3.728 6.125 3.728 12.962v26.811h-13.672V38.337c0-5.237-1.776-7.191-6.658-7.191-1.865 0-3.551.177-6.304.976v32.494h-13.672V23.244ZM94.552 45.972c-9.056.888-11.986 2.309-11.986 5.86 0 2.663 1.687 3.906 5.416 3.906 2.042 0 3.906-.177 6.57-.621v-9.145Zm133.163 8.789c5.239 0 8.346-4.35 8.346-11.897 0-7.457-3.018-11.896-8.255-11.896-5.417 0-8.525 4.351-8.525 11.896.001 7.547 3.108 11.897 8.434 11.897ZM29.475 31.855c-1.598-.532-2.929-.709-4.616-.709-6.925 0-10.92 4.261-10.92 11.718 0 7.281 3.817 11.276 10.831 11.276 1.509 0 2.752-.089 4.705-.355v-21.93Zm156.42-.621h-1.421c-2.662-.088-5.769.621-7.901 1.953-3.284 1.865-4.972 5.239-4.972 10.032 0 6.837 3.375 10.743 9.411 10.743 1.864 0 3.374-.356 5.149-.888v-4.705c0-1.597-.088-3.374-.088-5.238l-.088-6.303-.09-4.528v-1.066ZM51.226.073h13.671V14.1H51.226V.073Z" fill="#092E20"/>
  </g>
</svg>