<svg xmlns="http://www.w3.org/2000/svg" role="img" class="relative -left-2 brightness-0 invert" viewBox="0 0 250 94" style="pointer-events: none; width: 150px; height: 22px; ">
  <g buffered-rendering="static">
    <path d="M154.708 63.732a51.358 51.358 0 0 1-5.113 8.247c-8.764 11.563-20.206 18.745-34.69 20.692-11.929 1.583-23.006-.73-32.743-8.033-9.008-6.817-14.12-15.824-15.459-27.022-1.582-13.268 2.313-25.196 10.346-35.664C85.692 10.632 97.133 3.45 111.131.894c11.442-2.069 22.397-.73 32.256 5.964 6.452 4.26 11.077 10.103 14.12 17.163.73 1.095.243 1.704-1.217 2.069-7.669 1.948-12.903 3.408-20.449 5.356-1.826.487-1.948.608-3.53-1.217-1.826-2.07-3.165-3.409-5.721-4.626-7.669-3.773-15.094-2.678-22.032 1.826-8.277 5.356-12.537 13.268-12.415 23.127.122 9.738 6.816 17.771 16.432 19.11 8.277 1.096 15.215-1.826 20.693-8.033 1.095-1.339 2.069-2.8 3.286-4.504h-23.492c-2.556 0-3.165-1.582-2.313-3.652 1.583-3.773 4.504-10.103 6.208-13.267.365-.731 1.217-1.948 3.043-1.948h39.172c1.759-5.574 4.614-10.84 8.421-15.824 8.886-11.685 19.597-17.771 34.082-20.327 12.415-2.191 24.101-.974 34.69 6.208 9.616 6.573 15.581 15.458 17.163 27.144 2.069 16.432-2.678 29.821-13.998 41.263-8.033 8.155-17.893 13.268-29.213 15.58-3.286.609-6.573.731-9.738 1.096-11.076-.244-21.179-3.408-29.7-10.712-5.992-5.179-10.12-11.546-12.171-18.958Zm70.841-19.505c-.122-1.583-.122-2.8-.365-4.017-2.191-12.051-13.268-18.867-24.831-16.189-11.32 2.556-18.624 9.737-21.301 21.179-2.191 9.495 2.434 19.11 11.198 23.006 6.695 2.921 13.389 2.556 19.84-.731 9.616-4.99 14.85-12.78 15.459-23.248ZM29.943 50.678c-.487 0-.608-.365-.365-.731l1.704-3.043c.244-.365.731-.73 1.218-.73h24.344c.487 0 .73.365.73.852l-.243 2.921c0 .487-.487.852-.852.852l-26.536-.121ZM.487 39.479c-.487 0-.609-.243-.365-.608l2.556-3.287c.243-.365.852-.608 1.339-.608h55.505c.486 0 .73.365.608.73l-.974 2.921c-.121.487-.608.731-1.095.731l-57.574.121Zm18.38-11.198c-.487 0-.609-.243-.365-.609l2.556-3.286c.243-.365.852-.609 1.339-.609h43.454c.487 0 .609.366.365.731l-2.069 3.164c-.243.366-.852.731-1.217.731l-44.063-.122Z" fill="#00ACD7"/>
  </g>
</svg>