<svg xmlns="http://www.w3.org/2000/svg" viewBox="0 0 93 25" fill-rule="evenodd" clip-rule="evenodd" stroke-linejoin="round" stroke-miterlimit="2" class="brightness-0 invert max-w-full" style="pointer-events: none; width: 150px; height: 26px; ">
  <g buffered-rendering="static">
    <path d="M24.271 5.656a.386.386 0 01.014.102v5.366a.39.39 0 01-.197.339l-4.504 2.594v5.139c0 .14-.074.269-.195.34l-9.402 5.412c-.021.012-.045.02-.068.028-.009.003-.018.009-.027.011a.399.399 0 01-.2 0c-.011-.003-.021-.009-.031-.013-.022-.008-.044-.014-.065-.026L.197 19.536a.392.392 0 01-.197-.34V3.098c0-.036.005-.07.014-.103.003-.011.009-.022.013-.033.008-.02.015-.041.025-.06.008-.013.018-.023.027-.035a.398.398 0 01.035-.046c.011-.011.026-.019.039-.029.014-.012.026-.024.043-.034l4.7-2.706a.395.395 0 01.391 0l4.701 2.706h.001c.015.01.028.022.043.034.012.009.026.018.038.029.013.014.023.03.035.046.008.012.019.022.026.035.012.019.018.04.026.06.004.011.011.022.013.033a.4.4 0 01.014.103v10.055l3.917-2.255V5.757c0-.034.005-.069.013-.101l.014-.034c.008-.02.015-.041.026-.06.007-.013.018-.023.026-.035.012-.016.021-.032.035-.046.011-.011.026-.019.038-.029.015-.012.028-.024.043-.034l4.701-2.706a.397.397 0 01.392 0l4.7 2.706c.016.01.029.022.044.034.012.009.026.018.037.029.014.014.024.03.036.046.008.012.019.022.026.035.011.019.018.04.025.06.005.012.011.022.014.034zm-5.47 13.314v-4.465l-2.235 1.276-6.382 3.643v4.507l8.617-4.961zM.784 3.775V18.97L9.4 23.931v-4.507l-4.505-2.549c-.015-.009-.028-.022-.042-.033-.012-.009-.026-.017-.037-.028l-.001-.001c-.013-.013-.022-.028-.032-.042-.01-.013-.022-.024-.03-.038v-.001c-.009-.015-.014-.032-.021-.049-.006-.015-.014-.028-.018-.044v-.001c-.005-.018-.006-.038-.008-.057-.002-.014-.006-.029-.006-.044V6.03L2.428 4.721.784 3.775zm83.613 6.42c2.918 0 4.908 2.586 4.534 5.613h-7.109c0 .79.798 2.318 2.693 2.318 1.63 0 2.722-1.433 2.723-1.434l1.447 1.12c-1.294 1.382-2.354 2.017-4.014 2.017-2.965 0-4.975-1.876-4.975-4.817 0-2.66 2.077-4.817 4.701-4.817zm-34.998 1.474v-1.238h2.144v9.162H49.4v-1.239a2.958 2.958 0 01-1.229 1.081 3.59 3.59 0 01-1.602.393 4.644 4.644 0 01-1.907-.383 4.458 4.458 0 01-1.485-1.052 4.934 4.934 0 01-1.307-3.382 4.971 4.971 0 011.307-3.381 4.458 4.458 0 011.485-1.052 4.644 4.644 0 011.907-.383 3.59 3.59 0 011.602.393c.53.262.94.622 1.228 1.081v.001h.001l-.001-.001zm17.419.001v-1.239h2.144v9.162h-2.144v-1.239a2.949 2.949 0 01-1.228 1.081 3.591 3.591 0 01-1.603.393c-.694 0-1.33-.127-1.906-.383a4.458 4.458 0 01-1.485-1.052 4.933 4.933 0 01-1.307-3.382 4.971 4.971 0 011.307-3.381 4.458 4.458 0 011.485-1.052 4.643 4.643 0 011.906-.383c.538 0 1.072.131 1.603.393.531.263.94.623 1.228 1.082zm-13.585 7.923v-9.162h5.82v2.109h-3.677v7.053h-2.143zm24.32-9.162h2.17l-3.516 9.162h-2.695l-3.517-9.162h2.171l2.694 7.016 2.693-7.016zm-40.381-4.6v11.737h4.246v2.024H34.91V5.831h2.262zm53.154 13.761V5.831h2.143v13.761h-2.143zm-80.535-.846l5.744-3.278 2.871-1.639-3.913-2.253-8.611 4.958 3.909 2.212zm39.412-2.614c.132-.358.199-.738.197-1.12 0-.394-.066-.767-.197-1.12a2.847 2.847 0 00-.55-.925 2.657 2.657 0 00-.856-.629 2.577 2.577 0 00-1.11-.236 2.52 2.52 0 00-1.102.236c-.32.152-.607.366-.845.629-.24.269-.423.583-.54.924-.126.36-.189.739-.187 1.12 0 .394.062.767.187 1.121a2.68 2.68 0 001.386 1.554c.327.157.694.235 1.101.235.406 0 .776-.078 1.11-.235a2.66 2.66 0 00.856-.63c.24-.27.427-.583.55-.924zm17.419 0c.132-.358.198-.738.196-1.12 0-.394-.066-.767-.196-1.12a2.847 2.847 0 00-.55-.925 2.657 2.657 0 00-.856-.629 2.58 2.58 0 00-1.11-.236 2.52 2.52 0 00-1.102.236c-.32.152-.607.366-.845.629a2.69 2.69 0 00-.54.924c-.126.36-.189.739-.187 1.12 0 .394.061.767.187 1.121.124.354.304.662.54.924.238.264.525.478.845.63.328.157.695.235 1.102.235a2.58 2.58 0 001.11-.235 2.66 2.66 0 00.856-.63c.24-.27.427-.583.55-.924zM7.129 14.911l2.272-1.307V3.775L5.484 6.03v9.829l1.645-.948zm74.699-.696h5.135c-.016-.176-.294-2.318-2.583-2.318s-2.536 2.142-2.552 2.318zm-58.327-3.317V6.435L19.584 8.69v4.463l3.917-2.255zm-4.7-2.208l-3.917-2.255v4.463l3.917 2.255V8.69zm.392-5.186l-3.916 2.254 3.916 2.254 3.915-2.255-3.915-2.253zM5.092.844h-.001.001L1.176 3.098l3.915 2.254 3.916-2.255L5.092.844z"/>
  </g>
</svg>