<svg xmlns="http://www.w3.org/2000/svg" viewBox="0 0 339 68" fill-rule="evenodd" clip-rule="evenodd" stroke-linejoin="round" stroke-miterlimit="2" class="brightness-0 invert max-w-full" style="pointer-events: none; width: 150px; height: 16px; ">
  <g buffered-rendering="static">
    <path d="M173.458 48.812l-7.676-9.544-23.424 29.09h15.372l15.728-19.546zM157.73.071h-15.328l54.899 68.235h15.372L185.22 34.212 212.63.123l-15.329.024-19.754 24.535L157.73.071zm67.627-.029h59.048v10.899h-23.424v57.337h-11.713V10.941h-23.911V.042zM54.9 68.278L11.712 14.599v53.65H0V.014h14.64l54.562 67.754V10.941h-.004V.042h59.047v10.899H80.914v17.533h38.064v10.898H80.914v18.007h47.331v10.899H54.9zm278.672-21.343c-.127-1.212-.683-2.158-1.651-2.831-.976-.68-2.237-1.016-3.785-1.016-1.087 0-2.023.164-2.801.485-.778.328-1.381.766-1.794 1.321a3.227 3.227 0 00-.635 1.9c0 .595.143 1.111.421 1.541.278.438.65.805 1.135 1.103.498.314 1.03.568 1.587.758.587.203 1.175.375 1.761.516l2.706.665c1.088.25 2.144.586 3.151 1.016 1.008.423 1.921.962 2.722 1.611a7.205 7.205 0 011.905 2.346c.468.915.706 1.986.706 3.222 0 1.666-.428 3.128-1.294 4.395-.865 1.259-2.111 2.244-3.745 2.956-1.627.703-3.595 1.063-5.912 1.063-2.238 0-4.19-.344-5.833-1.032-1.65-.68-2.937-1.681-3.865-2.995-.928-1.314-1.428-2.917-1.5-4.802h5.143c.071.986.389 1.807.928 2.472.548.656 1.262 1.141 2.135 1.47.881.32 1.865.485 2.952.485 1.135 0 2.135-.173 3-.509.857-.336 1.531-.805 2.015-1.415.493-.602.739-1.314.746-2.127-.007-.743-.23-1.361-.659-1.846-.436-.484-1.039-.891-1.809-1.219a18.495 18.495 0 00-2.714-.884l-3.285-.829c-2.373-.602-4.254-1.517-5.627-2.745-1.38-1.227-2.063-2.854-2.063-4.895 0-1.673.46-3.143 1.389-4.402.92-1.259 2.182-2.237 3.778-2.933 1.603-.704 3.412-1.048 5.427-1.048 2.048 0 3.841.344 5.389 1.048 1.547.696 2.762 1.666 3.642 2.901.881 1.236 1.341 2.651 1.365 4.254h-5.031zm-26.545-7.82h5.19v19.996c-.007 1.837-.405 3.409-1.182 4.731-.785 1.321-1.873 2.33-3.269 3.041-1.389.704-3.016 1.064-4.865 1.064-1.691 0-3.206-.305-4.555-.899-1.349-.595-2.421-1.486-3.206-2.659-.794-1.173-1.183-2.635-1.183-4.387h5.198c.008.766.183 1.431.516 1.986.333.555.793.978 1.381 1.275.594.297 1.277.446 2.047.446.833 0 1.548-.172 2.127-.524.579-.344 1.024-.861 1.333-1.549.301-.68.461-1.524.468-2.525V39.115zm-19.99 28.746a3.04 3.04 0 01-2.198-.891 2.867 2.867 0 01-.905-2.167c-.008-.828.294-1.54.905-2.134a3.036 3.036 0 012.198-.892c.826 0 1.548.297 2.158.892.62.594.929 1.306.937 2.134a2.954 2.954 0 01-.437 1.541 3.166 3.166 0 01-1.135 1.103c-.46.273-.968.414-1.523.414z" fill-rule="nonzero"/>
  </g>
</svg>