<svg xmlns="http://www.w3.org/2000/svg" role="img" class="brightness-0 invert max-w-full" viewBox="0 0 250 88" style="pointer-events: none; width: 150px; height: 24px; ">
  <g buffered-rendering="static">
    <path d="M107.152 73.663s11.037-.946 11.037-15.199c0-14.254-13.371-15.578-13.371-15.578H80.727v44.967h12.109V77.006l10.469 10.847h17.911l-14.064-14.19Zm40.931-30.462h-12.298c-8.767 0-11.731 7.947-11.731 11.731v32.921h12.298V79.97h11.542v7.883h11.919V54.932c0-9.586-8.703-11.731-11.73-11.731Zm17.343 0h12.803v44.652h-12.803V43.201Zm30.777 33.111V43.201h-12.739v44.652h29.957V76.312h-17.218Zm21.443.126v11.415h20.623c4.226 0 11.479-3.09 11.731-11.73v-4.415c0-7.379-6.054-11.731-11.731-11.731h-10.28V54.68h20.371V43.201h-19.551c-5.045 0-11.793 4.163-11.793 11.92v3.973c0 7.758 6.685 11.731 11.793 11.731 14.19.063-3.405 0 9.713 0v5.55l-20.876.063ZM4.415 87.79h49.823s-9.523-43.453 22.011-61.049c6.874-3.343 28.759-15.83 64.581 10.658a39.271 39.271 0 0 1 2.207-1.703S110.242 2.964 73.726 6.622c-18.353 1.64-40.931 18.353-54.175 40.426C6.307 69.122 4.415 87.79 4.415 87.79ZM56.13 75.177c.126 3.342.442 6.054.757 7.946l7.568 2.712c-.568-2.46-1.135-5.235-1.514-8.199l-6.811-2.459Zm84.006-21.317h4.226c3.405 0 3.468 2.459 3.468 2.459V67.23h-11.541V56.319s0-2.459 3.847-2.459Zm-129.73 3.532-7.253-2.649C1.955 57.455.631 60.608 0 62.311l7.253 2.649c.82-2.145 2.144-5.235 3.153-7.568Zm92.079 7.063h-9.649v-10.28h9.712s2.712 1.009 2.712 5.109c0 4.099-2.775 5.171-2.775 5.171Zm-45.409-5.298 5.109 4.037c.252-2.46.693-4.92 1.324-7.379l-4.541-3.595c-.82 2.333-1.387 4.667-1.892 6.937Zm9.145-20.307 3.027 4.541c1.072-1.577 2.334-3.028 3.721-4.478l-2.838-4.289a34.93 34.93 0 0 0-3.91 4.226ZM29.453 29.2l-4.478-3.91c-1.64 1.577-3.217 3.153-4.667 4.73l4.856 4.163a63.74 63.74 0 0 1 4.289-4.983Zm52.472-2.144 1.45 4.352c1.829-.883 3.658-1.64 5.487-2.208l-1.387-4.162a45.747 45.747 0 0 0-5.55 2.018Zm20.308-3.532-.253 3.973c2.082.064 4.163.316 6.244.757l.252-3.91a44.7 44.7 0 0 0-6.243-.82ZM53.292 10.469l-2.838-4.351a99.54 99.54 0 0 0-4.919 2.711l2.901 4.415c1.64-1.009 3.216-1.955 4.856-2.775Zm54.932-.315.252-4.226c-.567-.315-2.144-1.072-6.117-2.207l-.253 4.162c2.082.694 4.1 1.451 6.118 2.271ZM78.898 3.847h.63L78.267 0c-1.955 0-3.973.126-6.055.378l1.199 3.721c1.829-.189 3.658-.252 5.487-.252Z" fill="#C00"/>
  </g>
</svg>