<svg xmlns="http://www.w3.org/2000/svg" role="img" class="brightness-0 invert max-w-full" viewBox="0 0 250 63" style="pointer-events: none; width: 150px; height: 16px; ">
  <g buffered-rendering="static">
    <path d="M181.742 18.718v43.698h15.754V18.718h-15.754Zm66.897-.086h-16.24l-7.391 10.386-7.196-10.386h-17.407l15.656 21.458-17.018 22.241h16.24l8.655-11.856 8.655 11.856H250l-17.115-22.927 15.754-20.772Zm-102.293 7.242c-1.848-5.095-5.835-8.622-13.517-8.622-6.516 0-11.184 2.94-13.518 7.74v-6.564h-15.753v43.698h15.753V40.669c0-6.565 1.848-10.876 7.002-10.876 4.765 0 5.932 3.136 5.932 9.112v23.221h15.754V40.669c0-6.565 1.75-10.876 7.002-10.876 4.765 0 5.835 3.136 5.835 9.112v23.221h15.753V34.692c0-9.112-3.5-17.44-15.462-17.44-7.293 0-12.447 3.723-14.781 8.622ZM87.153 45.167c-1.459 3.43-4.182 4.899-8.46 4.899-4.765 0-8.655-2.547-9.044-7.936h30.438v-4.409c0-11.855-7.683-21.849-22.173-21.849-13.517 0-23.63 9.896-23.63 23.711 0 13.912 9.919 22.338 23.825 22.338 11.475 0 19.449-5.584 21.686-15.578l-12.642-1.176Zm-36.232 2.466c.551 7.137.551 10.482.551 14.134H35.087c0-.796.014-1.523.028-2.261.044-2.294.09-4.686-.278-9.516-.488-7.071-3.509-8.642-9.066-8.642H0V28.482h26.551c7.018 0 10.528-2.152 10.528-7.848 0-5.009-3.51-8.044-10.528-8.044H0V0h29.475C45.364 0 53.26 7.562 53.26 19.643c0 9.035-5.556 14.928-13.062 15.91 6.336 1.277 10.04 4.911 10.723 12.08ZM0 61.767v-9.591h17.326c2.893 0 3.522 2.163 3.522 3.452v6.139H0Zm69.843-27.279c.584-4.116 2.82-7.251 7.877-7.251 4.668 0 7.196 3.331 7.391 7.251H69.843Zm111.802-19.885h15.948V.69h-15.948v13.913Z" style="fill:#121212"/>
  </g>
</svg>