<svg xmlns="http://www.w3.org/2000/svg" role="img" class="brightness-0 invert max-w-full" viewBox="0 0 250 94" style="pointer-events: none; width: 150px; height: 30px; ">
  <g buffered-rendering="static">
    <path d="M42.966 4.589a38.9 38.9 0 0 0-1.083.106l-3.175-3.397a1.339 1.339 0 0 0-2.228.444l-1.631 4.351c-.347.101-.694.206-1.038.316L30.03 3.691a1.336 1.336 0 0 0-2.099.87l-.752 4.606c-.318.165-.634.335-.947.509l-4.251-1.937a1.336 1.336 0 0 0-.553-.12 1.344 1.344 0 0 0-1.336 1.383l.165 4.681c-.274.22-.544.442-.812.668l-4.563-1.075a1.34 1.34 0 0 0-1.607 1.607l1.075 4.563c-.226.268-.448.539-.668.812l-4.681-.165-.051-.001a1.34 1.34 0 0 0-1.334 1.334c0 .192.042.381.122.556l1.937 4.251c-.173.312-.343.628-.508.947l-4.607.752a1.341 1.341 0 0 0-.87 2.099l2.718 3.781c-.11.346-.215.691-.315 1.038l-4.352 1.631a1.338 1.338 0 0 0-.444 2.228l3.397 3.176c-.04.359-.075.72-.106 1.082L.633 45.416a1.337 1.337 0 0 0 0 2.273l3.956 2.449c.03.363.066.723.106 1.083l-3.398 3.176a1.333 1.333 0 0 0 .444 2.227l4.352 1.631c.101.348.206.694.316 1.038L3.69 63.075a1.334 1.334 0 0 0 .87 2.099l4.608.752c.166.317.335.632.508.944l-1.938 4.253a1.336 1.336 0 0 0 1.217 1.89h.046l4.684-.166c.219.273.441.543.666.81l-1.076 4.565a1.34 1.34 0 0 0 1.607 1.607l4.566-1.075c.267.225.537.447.809.665l-.165 4.684-.001.052a1.34 1.34 0 0 0 1.333 1.333c.192 0 .382-.042.557-.122l4.253-1.938c.313.174.628.343.945.508l.752 4.608a1.339 1.339 0 0 0 2.099.87l3.782-2.718c.344.109.69.214 1.037.315l1.631 4.353a1.337 1.337 0 0 0 2.228.443l3.176-3.397c.359.04.72.075 1.082.106l2.449 3.955a1.336 1.336 0 0 0 2.273 0l2.449-3.955c.363-.031.723-.066 1.083-.106l3.176 3.397c.315.338.783.489 1.237.398.454-.09.828-.408.99-.841l1.631-4.353c.348-.101.694-.206 1.038-.315l3.782 2.718a1.338 1.338 0 0 0 2.099-.87l.752-4.608c.317-.166.632-.335.944-.508l4.253 1.938c.174.08.364.121.556.121.732 0 1.335-.603 1.335-1.335l-.001-.049-.166-4.684c.273-.218.543-.44.81-.665l4.565 1.075a1.34 1.34 0 0 0 1.607-1.607l-1.075-4.565c.225-.267.447-.537.665-.81l4.684.166.047.001c.733 0 1.336-.604 1.336-1.336 0-.192-.041-.381-.12-.555l-1.938-4.253c.174-.312.343-.627.508-.944l4.608-.752a1.338 1.338 0 0 0 .87-2.099l-2.718-3.782c.109-.345.214-.69.315-1.038l4.353-1.631a1.333 1.333 0 0 0 .443-2.227l-3.397-3.176c.04-.36.075-.721.106-1.083l3.955-2.449a1.338 1.338 0 0 0 0-2.273l-3.955-2.449a43.514 43.514 0 0 0-.106-1.082l3.397-3.176a1.338 1.338 0 0 0-.443-2.228L87.01 34.85a45.92 45.92 0 0 0-.315-1.037l2.718-3.782a1.337 1.337 0 0 0-.87-2.099l-4.608-.752a47.61 47.61 0 0 0-.508-.945l1.938-4.253c.079-.174.121-.364.121-.555 0-.733-.603-1.335-1.335-1.335l-.049.001-4.684.165c-.218-.273-.44-.542-.665-.809l1.075-4.566a1.341 1.341 0 0 0-1.607-1.607l-4.565 1.076a42.038 42.038 0 0 0-.81-.666l.166-4.684.001-.046c0-.734-.604-1.337-1.337-1.337-.191 0-.38.041-.554.12l-4.253 1.938a45.247 45.247 0 0 0-.944-.508l-.752-4.608a1.337 1.337 0 0 0-2.099-.87L59.292 6.41c-.345-.11-.69-.215-1.038-.316l-1.631-4.352a1.334 1.334 0 0 0-2.227-.444L51.22 4.695c-.36-.039-.721-.075-1.083-.105L47.688.634a1.336 1.336 0 0 0-2.273 0l-2.449 3.955Zm-4.139 45.109h8.812c.801 0 4.303.231 5.417 4.704.347 1.372 1.122 5.844 1.648 7.279.525 1.604 2.655 4.811 4.927 4.811H74.01a34.25 34.25 0 0 1-3.153 3.653l-5.854-1.256a2.541 2.541 0 0 0-3.002 1.942l-1.39 6.486a34.133 34.133 0 0 1-28.43-.134l-1.39-6.486a2.53 2.53 0 0 0-2.994-1.942l-5.728 1.229a33.948 33.948 0 0 1-2.958-3.492H46.97c.312 0 .526-.054.526-.348v-9.853c0-.285-.214-.348-.526-.348h-8.152l.009-6.245ZM66.999 72.39a2.795 2.795 0 0 1 2.69 2.771c0 1.52-1.25 2.771-2.77 2.771a2.797 2.797 0 0 1-2.771-2.771v-.001a2.796 2.796 0 0 1 2.771-2.771l.08.001Zm-41.028-.125a2.796 2.796 0 0 1 2.691 2.771 2.798 2.798 0 0 1-2.771 2.771 2.797 2.797 0 0 1-2.771-2.771v-.001a2.796 2.796 0 0 1 2.771-2.771l.08.001Zm215.867-45.026h-12.273v2.605c0 2.49-1.331 4.226-4.4 4.226v9.494h2.548v10.478c0 9.841 4.515 13.025 12.33 13.025 5.615 0 9.957-1.736 9.957-1.736v-9.089s-2.663.521-4.805.521c-2.2 0-3.357-1.1-3.357-3.705v-9.494h7.815V34.07h-7.815v-6.831Zm-45.791 38.034s5.152 1.794 13.951 1.794c10.015 0 14.589-4.226 14.589-11.115 0-6.715-4.169-9.957-13.084-10.883-3.589-.347-4.399-.752-4.399-1.679 0-.926 1.331-1.389 4.457-1.389 4.747 0 10.999.811 10.999.811v-7.816s-4.573-1.736-13.43-1.736c-10.536 0-14.762 4.573-14.762 10.594 0 6.483 4.863 9.899 12.91 10.999 3.647.521 4.457.868 4.457 1.91 0 .926-.753 1.505-4.168 1.505-4.284 0-11.52-1.042-11.52-1.042v8.047ZM170.865 34.07h-15.862v9.494h2.547v9.494c0 9.667 3.937 14.009 10.247 14.009 5.21 0 7.931-2.894 9.783-4.747v3.937h15.862v-9.494h-2.547V34.07h-16.441v9.494h3.126v9.494c0 2.605-1.158 3.705-3.357 3.705-2.2 0-3.358-1.1-3.358-3.705V34.07ZM130.4 47.269c4.805 0 6.773.753 6.773 5.384v13.604h18.351v-9.494h-2.72v-4.458c0-4.052-1.853-6.252-5.558-6.831l-.058-.578c3.937-1.506 6.021-5.558 6.021-10.652 0-9.552-5.847-13.025-15.341-13.025h-27.15v9.494h3.473v26.05h-3.473v9.494h23.503v-9.494H130.4v-9.494ZM52.833 12.741a34.13 34.13 0 0 1 23.342 16.625l-3.269 7.377a2.559 2.559 0 0 0 1.283 3.341l6.29 2.789c.195 1.966.219 3.945.071 5.916h-3.501c-.348 0-.49.232-.49.57v1.604c0 3.777-2.13 4.606-4.001 4.811-1.782.205-3.751-.749-4-1.835-1.051-5.907-2.798-7.164-5.56-9.346 3.431-2.174 6.994-5.391 6.994-9.685 0-4.642-3.18-7.564-5.345-8.998-3.047-2.005-6.415-2.406-7.324-2.406H21.151a34.1 34.1 0 0 1 19.075-10.763l4.268 4.473a2.513 2.513 0 0 0 3.563.08l4.776-4.553Zm-34.159 21.08h4.829v21.775h-9.747a34.097 34.097 0 0 1-1.105-13.017l5.97-2.655a2.528 2.528 0 0 0 1.283-3.332l-1.23-2.771Zm20.153.232h11.502c.597 0 4.197.686 4.197 3.385 0 2.237-2.762 3.038-5.034 3.038H38.818l.009-6.423Zm91.573 6.153v-9.493h3.126c2.2 0 3.358 1.1 3.358 3.705v2.084c0 2.605-1.158 3.704-3.358 3.704H130.4Zm-50.884-6.83a2.794 2.794 0 0 1 2.691 2.77 2.798 2.798 0 0 1-2.771 2.771 2.797 2.797 0 0 1-2.771-2.771v-.001a2.797 2.797 0 0 1 2.784-2.77l.067.001Zm-66.063-.125a2.796 2.796 0 0 1 2.691 2.771 2.798 2.798 0 0 1-2.771 2.771 2.797 2.797 0 0 1-2.771-2.771v-.001a2.796 2.796 0 0 1 2.771-2.771l.08.001ZM46.489 8.18a2.791 2.791 0 0 1 2.691 2.771c0 1.52-1.251 2.77-2.771 2.77a2.797 2.797 0 0 1-2.771-2.77v-.002c0-1.52 1.251-2.77 2.771-2.77l.08.001Z" style="fill-rule:nonzero"/>
  </g>
</svg>