<svg xmlns="http://www.w3.org/2000/svg" role="img" class="" style="pointer-events: none; width: 24px; height: 24px; ;" viewBox="0 0 20 20" fill="#f59e0b" fill-rule="evenodd">
  <g buffered-rendering="static">
    
      
      <path d="M7.812 6.867l-.83-1.811a1.9 1.9 0 001.728-.792l.829 1.81a4.317 4.317 0 013.721.975l2.453-1.786A1.903 1.903 0 0016.832 6.8L14.38 8.585c.414.96.464 2.039.141 3.034l2.154 1.283a1.902 1.902 0 00-.972 1.633l-2.156-1.283a4.297 4.297 0 01-3.122 1.341c-.52 0-1.019-.092-1.481-.261l-1.058 1.637a1.9 1.9 0 00-1.597-1.031l1.059-1.64a4.3 4.3 0 01-1.123-2.06v.001H4.042a1.894 1.894 0 000-1.901h2.183a4.306 4.306 0 011.587-2.471zm2.613.972a2.461 2.461 0 00-2.38 2.449 2.461 2.461 0 002.38 2.449 2.45 2.45 0 002.449-2.449 2.45 2.45 0 00-2.449-2.449z" fill-opacity=".3" fill-rule="nonzero"/>
      <path d="M6.196 14.935l.061-.001c1.041 0 1.899.857 1.899 1.899a1.908 1.908 0 01-1.899 1.899l-.063-.001a1.907 1.907 0 01-1.836-1.898c0-1.019.82-1.865 1.838-1.898zm11.405-2.275a1.908 1.908 0 011.838 1.899 1.908 1.908 0 01-1.838 1.899 1.908 1.908 0 01-1.838-1.899c0-1.019.819-1.866 1.838-1.899zM2.399 8.39a1.909 1.909 0 011.898 1.899 1.908 1.908 0 01-1.899 1.899h-.001a1.909 1.909 0 01-1.898-1.899c0-1.042.858-1.899 1.9-1.899H2.4h-.001zm15.202-5.224A1.91 1.91 0 0119.5 5.065v.001a1.91 1.91 0 01-1.9 1.9 1.91 1.91 0 01-1.9-1.9c0-1.042.858-1.9 1.9-1.9h.001zM7.161 1.268c1.041 0 1.899.857 1.899 1.898a1.908 1.908 0 01-1.899 1.899 1.907 1.907 0 01-1.898-1.898c0-1.042.857-1.899 1.898-1.899z" fill-opacity=".7" fill-rule="nonzero"/>
      <path d="M2.894 8.457c.486.133.896.455 1.145.881h2.186a4.306 4.306 0 011.587-2.471l-.83-1.811a1.907 1.907 0 01-1.719-1.889c0-1.042.857-1.899 1.898-1.899s1.899.857 1.899 1.898c0 .524-.22.946-.34 1.121l.819 1.787a4.317 4.317 0 013.721.975l2.451-1.784A1.91 1.91 0 0117.6 3.166h.001A1.91 1.91 0 0119.5 5.065v.001a1.91 1.91 0 01-1.9 1.9c-.273 0-.534-.059-.77-.165l-2.45 1.784c.414.96.464 2.039.141 3.034l2.154 1.283a1.902 1.902 0 00-.972 1.633l-2.156-1.283a4.297 4.297 0 01-3.122 1.341c-.52 0-1.019-.092-1.481-.261l-1.026 1.587c.151.272.238.584.238.914a1.908 1.908 0 01-1.899 1.899l-.063-.001a1.907 1.907 0 01-1.836-1.898 1.91 1.91 0 011.345-1.816.5.5 0 00.493.418v-.01a.5.5 0 01-.401-.433 1.83 1.83 0 01.401-.057l.095-.001 1.057-1.636a4.292 4.292 0 01-.984-1.58.5.5 0 00.361-.48c0 .082-.238.289-.386.41l-.016-.051-.007-.023c.136-.237.38-.622.407-.384a.617.617 0 00-.01-.062c.155.687.499 1.317.992 1.82.164.167.19.425.063.621l-1.057 1.637a.5.5 0 01-.42.228l-.093.001a1.406 1.406 0 00-1.34 1.398 1.404 1.404 0 001.399 1.399c.767 0 1.399-.631 1.399-1.399 0-.243-.064-.472-.175-.671a.502.502 0 01.017-.514l1.026-1.587a.5.5 0 01.592-.199c.408.15.849.231 1.309.231h.001a3.797 3.797 0 002.758-1.185.5.5 0 01.619-.086l1.544.919c.104-.284.26-.547.461-.774l-1.543-.918a.501.501 0 01-.22-.585 3.801 3.801 0 00-.124-2.681.499.499 0 01.165-.602l2.45-1.784a.5.5 0 01.499-.052c.173.078.364.121.565.121.768 0 1.4-.632 1.4-1.4v-.001c0-.767-.632-1.399-1.399-1.399H17.6a1.407 1.407 0 00-1.392 1.546.5.5 0 01-.203.457l-2.451 1.784a.5.5 0 01-.623-.027 3.818 3.818 0 00-3.29-.863.5.5 0 01-.557-.281l-.818-1.787a.5.5 0 01.042-.49 1.57 1.57 0 00.252-.839c0-.767-.632-1.398-1.399-1.398s-1.398.631-1.398 1.399c0 .722.56 1.324 1.267 1.392a.502.502 0 01.407.289l.83 1.811a.5.5 0 01-.152.605 3.814 3.814 0 00-1.402 2.185.502.502 0 01-.488.389H4.039a.5.5 0 01-.432-.248 1.404 1.404 0 00-1.208-.7c-.768 0-1.4.632-1.4 1.399s.631 1.398 1.398 1.399h.001c.514 0 .966-.284 1.21-.701a.498.498 0 01.431-.248h2.186v.5h-.456c-.027-.019-.044-.023-.044-.001v.001H4.039c-.33.566-.944.949-1.641.949h-.001a1.909 1.909 0 01-1.898-1.899c0-1.042.858-1.899 1.9-1.899.171 0 .337.023.495.067a.5.5 0 000 0zm14.707 4.203a1.908 1.908 0 011.838 1.899 1.908 1.908 0 01-1.838 1.899 1.908 1.908 0 01-1.838-1.899c0-1.019.819-1.866 1.838-1.899zm0 .5a1.407 1.407 0 011.338 1.399c0 .742-.589 1.36-1.327 1.398a1.407 1.407 0 01-1.349-1.398c0-.742.589-1.36 1.327-1.398l.011-.001zm-7.176-5.821h-.014a2.964 2.964 0 00-2.866 2.949 2.964 2.964 0 002.866 2.949h.014a2.95 2.95 0 002.949-2.949 2.95 2.95 0 00-2.949-2.949zm0 .5a2.461 2.461 0 00-2.38 2.449 2.461 2.461 0 002.38 2.449 2.45 2.45 0 002.449-2.449 2.45 2.45 0 00-2.449-2.449z"/>
    
  </g>
</svg>