<svg xmlns="http://www.w3.org/2000/svg" role="img" class="" style="pointer-events: none; width: 24px; height: 24px; " viewBox="0 0 20 20" fill="#f97316" fill-rule="evenodd">
  <g buffered-rendering="static">

      <path d="M15.534 6.708h-4.945l1.569-4.188c.047-.126.071-.259.071-.393 0-.617-.508-1.126-1.125-1.127H5.429c-.568 0-1.047.423-1.116.987L3.35 9.8l-.001.003v.005l-.001.002v.007l-.001.002v.008l-.001.002v.009l-.001.007v.004l-.001.003v.006l-.001.018v.006l-.001.008v.005l-.001.019v.048l.001.002v.028l.001.002v.011l.001.017.001.002v.008c.01.117.038.232.085.342l.001.005.008.018.002.002.001.003v.002l.001.002.002.002.003.007.003.008.005.01.027.051.002.004.003.005.009.016.001.001v.001l.002.002.002.003.001.002v.001l.001.001.003.005.001.001.001.003.003.003v.001l.001.001.002.003v.002l.001.001.002.003.001.002.001.001c.061.095.136.18.221.251l.004.003.007.007.007.006.004.002.001.002h.001l.002.001.005.005.002.001.002.002.006.004a.018.018 0 00.007.005v.001l.002.001.003.002.002.002h.001l.003.003.005.003.014.011.005.003.004.003.023.015.008.006.016.009.005.003.011.007.016.009.001.001h.001l.006.004.001.001h.001l.001.001.006.003a.02.02 0 00.008.004l.002.002.004.001.001.001.004.002.001.001.003.001.008.004.003.002.008.004.003.002h.002l.001.001.003.001.002.001.001.001c.125.06.262.098.404.108h.002l.004.001h.01l.009.001h.017l.003.001h4.996l-1.597 6.546a1.128 1.128 0 001.088 1.4c.381 0 .737-.194.944-.514l6.615-10.042c.121-.184.185-.398.185-.618 0-.617-.507-1.125-1.124-1.126z" fill-opacity=".5" fill-rule="nonzero"/>
      <path d="M3.518 10.543l-.002-.003-.001-.003-.006-.008-.001-.003-.006-.01-.002-.003-.002-.002-.053-.103-.003-.004v-.002l-.001-.003-.002-.002-.008-.018-.001-.005a1.108 1.108 0 01-.085-.342v-.008l-.001-.002-.001-.028-.001-.002v-.028l-.001-.002.003-.11.001-.003v-.004l.001-.007v-.009l.001-.002v-.008l.001-.002V9.81l.001-.002v-.005L3.35 9.8l.963-7.813A1.124 1.124 0 015.429 1h5.675c.617.001 1.125.51 1.125 1.127 0 .134-.024.267-.071.393l-1.569 4.188h4.945l.057.002c.205.016.399.076.57.192.502.342.646 1.042.312 1.55L9.858 18.494a1.13 1.13 0 01-1.614.29 1.14 1.14 0 01-.44-.729c-.023-.149-.014-.3.022-.447l1.597-6.546H4.927a.499.499 0 00-.344-.475h-.001l-.016-.005.017.005c.039.014.048.084.04.181a.805.805 0 01-.036.294l-1.069-.519zm.923.019l-.026-.002a.607.607 0 01-.214-.057l-.002-.001-.087-.049-.056-.044a.612.612 0 01-.115-.133l-.036-.063-.015-.035a.608.608 0 01-.045-.176l-.004-.101.001-.011v-.001l.004-.028.963-7.813a.625.625 0 01.62-.548h5.674a.63.63 0 01.586.846l-1.568 4.187a.5.5 0 00.468.675h4.944a.63.63 0 01.522.97L9.438 18.223a.623.623 0 01-1.127-.491l1.598-6.551a.502.502 0 00-.486-.619H4.441zm.012.001l.004.001h.016l-.026-.002.006.001zm-.182-.017a.5.5 0 00-.067-.041l.067.041zm-.426-.52a.548.548 0 01-.004.07l-.013-.014.003-.014a.121.121 0 00.014-.042z"/>

  </g>
</svg>