<svg xmlns="http://www.w3.org/2000/svg" role="img" class="" style="pointer-events: none; width: 24px; height: 24px; " viewBox="0 0 20 20" fill="#10b981">
  <g buffered-rendering="static">

      <path d="M12.572 18.624a9.035 9.035 0 005.735-5.139h-3.92c-.32 2.065-.93 3.912-1.815 5.139zm6.119-10.947h-4.163c.076.762.12 1.543.12 2.323s-.044 1.561-.12 2.323h4.16c.205-.757.31-1.538.312-2.323 0-.806-.113-1.579-.309-2.323zm-.388-1.162a9.025 9.025 0 00-5.735-5.139c.886 1.227 1.496 3.074 1.815 5.139h3.92z" fill-opacity=".7" fill-rule="nonzero"/>
      <path d="M6.789 13.485c.527 3.241 1.768 5.517 3.213 5.517 1.444 0 2.686-2.276 3.212-5.517H6.789zM6.517 10c0 .806.044 1.579.12 2.323h6.726c.076-.744.12-1.517.12-2.323s-.044-1.579-.12-2.323H6.637c-.076.744-.12 1.517-.12 2.323zm6.697-3.485C12.688 3.274 11.446.998 10.002.998c-1.445 0-2.686 2.276-3.213 5.517h6.425z" fill-opacity=".5" fill-rule="nonzero"/>
      <path d="M1.701 13.485a9.022 9.022 0 005.735 5.139c-.886-1.227-1.496-3.074-1.815-5.139h-3.92zM5.356 10c0-.78.043-1.561.119-2.323H1.312A9.067 9.067 0 001 10c0 .806.116 1.579.312 2.323h4.16L5.356 10zm2.076-8.624a9.016 9.016 0 00-5.731 5.139h3.92c.315-2.065.925-3.912 1.811-5.139z" fill-opacity=".3" fill-rule="nonzero"/>
      <path d="M6.789 13.485c.527 3.241 1.768 5.517 3.213 5.517 1.444 0 2.686-2.276 3.212-5.517H6.789zm5.783 5.139a9.035 9.035 0 005.735-5.139h-3.92c-.32 2.065-.93 3.912-1.815 5.139zM1.701 13.485a9.022 9.022 0 005.735 5.139c-.886-1.227-1.496-3.074-1.815-5.139h-3.92zm5.686.5h5.23c-.312 1.586-.802 2.889-1.413 3.71-.367.492-.76.807-1.202.807-.442 0-.835-.315-1.202-.807-.612-.821-1.102-2.124-1.413-3.71zm6.326 3.66c.488-1.041.857-2.297 1.098-3.66h2.704a8.536 8.536 0 01-3.803 3.661l.001-.001zm-11.221-3.66h2.705c.24 1.363.609 2.62 1.098 3.66a8.518 8.518 0 01-3.803-3.66zm16.199-6.308h-4.163c.076.762.12 1.543.12 2.323s-.044 1.561-.12 2.323h4.16c.205-.757.31-1.538.312-2.323 0-.806-.113-1.579-.309-2.323zM5.356 10c0-.78.043-1.561.119-2.323H1.312A9.067 9.067 0 001 10c0 .806.116 1.579.312 2.323h4.16L5.356 10zm1.161 0c0 .806.044 1.579.12 2.323h6.726c.076-.744.12-1.517.12-2.323s-.044-1.579-.12-2.323H6.637c-.076.744-.12 1.517-.12 2.323zm-1.661 0l.09 1.823H1.705a8.408 8.408 0 01-.205-1.822 8.605 8.605 0 01.204-1.824h3.225A23.475 23.475 0 004.856 10zm2.161 0c0-.627.027-1.234.076-1.823h5.814a21.961 21.961 0 010 3.646H7.093A21.961 21.961 0 017.017 10zm11.281-1.823a8.47 8.47 0 01.202 1.822 8.469 8.469 0 01-.203 1.824h-3.223a22.99 22.99 0 00.001-3.646h3.223zM7.432 1.376a9.016 9.016 0 00-5.731 5.139h3.92c.315-2.065.925-3.912 1.811-5.139zm5.782 5.139C12.688 3.274 11.446.998 10.002.998c-1.445 0-2.686 2.276-3.213 5.517h6.425zm5.089 0a9.025 9.025 0 00-5.735-5.139c.886 1.227 1.496 3.074 1.815 5.139h3.92zm-.791-.5h-2.705c-.24-1.363-.609-2.619-1.098-3.66a8.518 8.518 0 013.803 3.66zM6.291 2.355c-.488 1.041-.857 2.297-1.095 3.66H2.492a8.514 8.514 0 013.8-3.661l-.001.001zm6.326 3.66h-5.23c.311-1.586.801-2.889 1.413-3.71.367-.492.76-.807 1.202-.807.442 0 .835.315 1.202.807.611.821 1.101 2.124 1.413 3.71z"/>

  </g>
</svg>